<mxfile host="65bd71144e">
    <diagram id="9MJtlUZovTA3999PRgLq" name="Page-1">
        <mxGraphModel dx="1822" dy="1198" grid="1" gridSize="10" guides="1" tooltips="1" connect="1" arrows="1" fold="1" page="1" pageScale="1" pageWidth="1654" pageHeight="1169" math="0" shadow="0">
            <root>
                <mxCell id="0"/>
                <mxCell id="1" parent="0"/>
                <mxCell id="253" value="" style="rounded=0;whiteSpace=wrap;html=1;dashed=1;strokeColor=#6666FF;strokeWidth=3;" parent="1" vertex="1">
                    <mxGeometry x="1371" y="110" width="250" height="690" as="geometry"/>
                </mxCell>
                <mxCell id="206" value="" style="rounded=0;whiteSpace=wrap;html=1;strokeColor=#3399FF;strokeWidth=3.5;dashed=1;" parent="1" vertex="1">
                    <mxGeometry x="46" y="141.5" width="440" height="670" as="geometry"/>
                </mxCell>
                <mxCell id="214" style="edgeStyle=none;html=1;exitX=1;exitY=0.5;exitDx=0;exitDy=0;entryX=0.001;entryY=0.509;entryDx=0;entryDy=0;strokeColor=#000000;entryPerimeter=0;" parent="1" source="166" target="253" edge="1">
                    <mxGeometry relative="1" as="geometry">
                        <mxPoint x="1661" y="454.06999999999994" as="targetPoint"/>
                    </mxGeometry>
                </mxCell>
                <mxCell id="166" value="" style="rounded=0;whiteSpace=wrap;html=1;dashed=1;dashPattern=8 8;strokeColor=#3333FF;" parent="1" vertex="1">
                    <mxGeometry x="1081" y="256.5" width="250" height="410" as="geometry"/>
                </mxCell>
                <mxCell id="137" value="" style="rounded=0;whiteSpace=wrap;html=1;dashed=1;dashPattern=8 8;strokeColor=#3333FF;" parent="1" vertex="1">
                    <mxGeometry x="641" y="260" width="410" height="410" as="geometry"/>
                </mxCell>
                <mxCell id="8" value="Small Table 500mS" style="swimlane;whiteSpace=wrap;html=1;startSize=40;" parent="1" vertex="1">
                    <mxGeometry x="661" y="286.5" width="110" height="110" as="geometry"/>
                </mxCell>
                <mxCell id="10" value="&lt;font style=&quot;color: rgb(0, 153, 77);&quot;&gt;Long Table&lt;/font&gt;" style="swimlane;horizontal=0;whiteSpace=wrap;html=1;strokeColor=#00994D;" parent="1" vertex="1">
                    <mxGeometry x="501" y="365" width="100" height="200" as="geometry"/>
                </mxCell>
                <mxCell id="209" value="All &lt;br&gt;variables" style="text;html=1;align=center;verticalAlign=middle;resizable=0;points=[];autosize=1;strokeColor=none;fillColor=none;fontColor=#999999;" parent="10" vertex="1">
                    <mxGeometry x="26" y="80" width="70" height="40" as="geometry"/>
                </mxCell>
                <mxCell id="11" value="Small Table 1S" style="swimlane;whiteSpace=wrap;html=1;startSize=40;" parent="1" vertex="1">
                    <mxGeometry x="661" y="426.5" width="110" height="90" as="geometry"/>
                </mxCell>
                <mxCell id="12" value="Small Table 1M" style="swimlane;whiteSpace=wrap;html=1;startSize=38;" parent="1" vertex="1">
                    <mxGeometry x="661" y="548.5" width="110" height="88" as="geometry"/>
                </mxCell>
                <mxCell id="18" value="Pivot" style="shape=singleArrow;whiteSpace=wrap;html=1;arrowWidth=0.4;arrowSize=0.4;rounded=0;" parent="1" vertex="1">
                    <mxGeometry x="775" y="445" width="50" height="53.5" as="geometry"/>
                </mxCell>
                <mxCell id="19" value="Pivoted 100mS" style="shape=table;childLayout=tableLayout;startSize=20;collapsible=0;recursiveResize=0;expand=0;fontSize=16;" parent="1" vertex="1">
                    <mxGeometry x="871" y="310" width="160" height="60" as="geometry"/>
                </mxCell>
                <mxCell id="20" value="" style="shape=tableRow;horizontal=0;swimlaneHead=0;swimlaneBody=0;top=0;left=0;strokeColor=inherit;bottom=0;right=0;dropTarget=0;fontStyle=0;fillColor=none;points=[[0,0.5],[1,0.5]];portConstraint=eastwest;startSize=40;collapsible=0;recursiveResize=0;expand=0;fontSize=16;" parent="19" vertex="1">
                    <mxGeometry y="20" width="160" height="15" as="geometry"/>
                </mxCell>
                <mxCell id="21" value="" style="swimlane;swimlaneHead=0;swimlaneBody=0;fontStyle=0;strokeColor=inherit;connectable=0;fillColor=none;startSize=40;collapsible=0;recursiveResize=0;expand=0;fontSize=16;" parent="20" vertex="1">
                    <mxGeometry x="40" width="40" height="15" as="geometry">
                        <mxRectangle width="40" height="15" as="alternateBounds"/>
                    </mxGeometry>
                </mxCell>
                <mxCell id="22" value="" style="swimlane;swimlaneHead=0;swimlaneBody=0;fontStyle=0;strokeColor=inherit;connectable=0;fillColor=none;startSize=40;collapsible=0;recursiveResize=0;expand=0;fontSize=16;" parent="20" vertex="1">
                    <mxGeometry x="80" width="40" height="15" as="geometry">
                        <mxRectangle width="40" height="15" as="alternateBounds"/>
                    </mxGeometry>
                </mxCell>
                <mxCell id="23" value="" style="swimlane;swimlaneHead=0;swimlaneBody=0;fontStyle=0;strokeColor=inherit;connectable=0;fillColor=none;startSize=40;collapsible=0;recursiveResize=0;expand=0;fontSize=16;" parent="20" vertex="1">
                    <mxGeometry x="120" width="40" height="15" as="geometry">
                        <mxRectangle width="40" height="15" as="alternateBounds"/>
                    </mxGeometry>
                </mxCell>
                <mxCell id="24" value="" style="shape=tableRow;horizontal=0;swimlaneHead=0;swimlaneBody=0;top=0;left=0;strokeColor=inherit;bottom=0;right=0;dropTarget=0;fontStyle=0;fillColor=none;points=[[0,0.5],[1,0.5]];portConstraint=eastwest;startSize=40;collapsible=0;recursiveResize=0;expand=0;fontSize=16;" parent="19" vertex="1">
                    <mxGeometry y="35" width="160" height="12" as="geometry"/>
                </mxCell>
                <mxCell id="25" value="" style="swimlane;swimlaneHead=0;swimlaneBody=0;fontStyle=0;connectable=0;strokeColor=inherit;fillColor=none;startSize=0;collapsible=0;recursiveResize=0;expand=0;fontSize=16;" parent="24" vertex="1">
                    <mxGeometry x="40" width="40" height="12" as="geometry">
                        <mxRectangle width="40" height="12" as="alternateBounds"/>
                    </mxGeometry>
                </mxCell>
                <mxCell id="26" value="" style="swimlane;swimlaneHead=0;swimlaneBody=0;fontStyle=0;connectable=0;strokeColor=inherit;fillColor=none;startSize=0;collapsible=0;recursiveResize=0;expand=0;fontSize=16;" parent="24" vertex="1">
                    <mxGeometry x="80" width="40" height="12" as="geometry">
                        <mxRectangle width="40" height="12" as="alternateBounds"/>
                    </mxGeometry>
                </mxCell>
                <mxCell id="27" value="" style="swimlane;swimlaneHead=0;swimlaneBody=0;fontStyle=0;connectable=0;strokeColor=inherit;fillColor=none;startSize=0;collapsible=0;recursiveResize=0;expand=0;fontSize=16;" parent="24" vertex="1">
                    <mxGeometry x="120" width="40" height="12" as="geometry">
                        <mxRectangle width="40" height="12" as="alternateBounds"/>
                    </mxGeometry>
                </mxCell>
                <mxCell id="28" value="" style="shape=tableRow;horizontal=0;swimlaneHead=0;swimlaneBody=0;top=0;left=0;strokeColor=inherit;bottom=0;right=0;dropTarget=0;fontStyle=0;fillColor=none;points=[[0,0.5],[1,0.5]];portConstraint=eastwest;startSize=40;collapsible=0;recursiveResize=0;expand=0;fontSize=16;" parent="19" vertex="1">
                    <mxGeometry y="47" width="160" height="13" as="geometry"/>
                </mxCell>
                <mxCell id="29" value="" style="swimlane;swimlaneHead=0;swimlaneBody=0;fontStyle=0;connectable=0;strokeColor=inherit;fillColor=none;startSize=0;collapsible=0;recursiveResize=0;expand=0;fontSize=16;" parent="28" vertex="1">
                    <mxGeometry x="40" width="40" height="13" as="geometry">
                        <mxRectangle width="40" height="13" as="alternateBounds"/>
                    </mxGeometry>
                </mxCell>
                <mxCell id="30" value="" style="swimlane;swimlaneHead=0;swimlaneBody=0;fontStyle=0;connectable=0;strokeColor=inherit;fillColor=none;startSize=0;collapsible=0;recursiveResize=0;expand=0;fontSize=16;" parent="28" vertex="1">
                    <mxGeometry x="80" width="40" height="13" as="geometry">
                        <mxRectangle width="40" height="13" as="alternateBounds"/>
                    </mxGeometry>
                </mxCell>
                <mxCell id="31" value="" style="swimlane;swimlaneHead=0;swimlaneBody=0;fontStyle=0;connectable=0;strokeColor=inherit;fillColor=none;startSize=0;collapsible=0;recursiveResize=0;expand=0;fontSize=16;" parent="28" vertex="1">
                    <mxGeometry x="120" width="40" height="13" as="geometry">
                        <mxRectangle width="40" height="13" as="alternateBounds"/>
                    </mxGeometry>
                </mxCell>
                <mxCell id="46" value="Pivoted 1M" style="shape=table;childLayout=tableLayout;startSize=20;collapsible=0;recursiveResize=0;expand=0;fontSize=16;" parent="1" vertex="1">
                    <mxGeometry x="871" y="560" width="160" height="60" as="geometry"/>
                </mxCell>
                <mxCell id="47" value="" style="shape=tableRow;horizontal=0;swimlaneHead=0;swimlaneBody=0;top=0;left=0;strokeColor=inherit;bottom=0;right=0;dropTarget=0;fontStyle=0;fillColor=none;points=[[0,0.5],[1,0.5]];portConstraint=eastwest;startSize=40;collapsible=0;recursiveResize=0;expand=0;fontSize=16;" parent="46" vertex="1">
                    <mxGeometry y="20" width="160" height="15" as="geometry"/>
                </mxCell>
                <mxCell id="48" value="" style="swimlane;swimlaneHead=0;swimlaneBody=0;fontStyle=0;strokeColor=inherit;connectable=0;fillColor=none;startSize=40;collapsible=0;recursiveResize=0;expand=0;fontSize=16;" parent="47" vertex="1">
                    <mxGeometry x="40" width="40" height="15" as="geometry">
                        <mxRectangle width="40" height="15" as="alternateBounds"/>
                    </mxGeometry>
                </mxCell>
                <mxCell id="49" value="" style="swimlane;swimlaneHead=0;swimlaneBody=0;fontStyle=0;strokeColor=inherit;connectable=0;fillColor=none;startSize=40;collapsible=0;recursiveResize=0;expand=0;fontSize=16;" parent="47" vertex="1">
                    <mxGeometry x="80" width="40" height="15" as="geometry">
                        <mxRectangle width="40" height="15" as="alternateBounds"/>
                    </mxGeometry>
                </mxCell>
                <mxCell id="50" value="" style="swimlane;swimlaneHead=0;swimlaneBody=0;fontStyle=0;strokeColor=inherit;connectable=0;fillColor=none;startSize=40;collapsible=0;recursiveResize=0;expand=0;fontSize=16;" parent="47" vertex="1">
                    <mxGeometry x="120" width="40" height="15" as="geometry">
                        <mxRectangle width="40" height="15" as="alternateBounds"/>
                    </mxGeometry>
                </mxCell>
                <mxCell id="51" value="" style="shape=tableRow;horizontal=0;swimlaneHead=0;swimlaneBody=0;top=0;left=0;strokeColor=inherit;bottom=0;right=0;dropTarget=0;fontStyle=0;fillColor=none;points=[[0,0.5],[1,0.5]];portConstraint=eastwest;startSize=40;collapsible=0;recursiveResize=0;expand=0;fontSize=16;" parent="46" vertex="1">
                    <mxGeometry y="35" width="160" height="12" as="geometry"/>
                </mxCell>
                <mxCell id="52" value="" style="swimlane;swimlaneHead=0;swimlaneBody=0;fontStyle=0;connectable=0;strokeColor=inherit;fillColor=none;startSize=0;collapsible=0;recursiveResize=0;expand=0;fontSize=16;" parent="51" vertex="1">
                    <mxGeometry x="40" width="40" height="12" as="geometry">
                        <mxRectangle width="40" height="12" as="alternateBounds"/>
                    </mxGeometry>
                </mxCell>
                <mxCell id="53" value="" style="swimlane;swimlaneHead=0;swimlaneBody=0;fontStyle=0;connectable=0;strokeColor=inherit;fillColor=none;startSize=0;collapsible=0;recursiveResize=0;expand=0;fontSize=16;" parent="51" vertex="1">
                    <mxGeometry x="80" width="40" height="12" as="geometry">
                        <mxRectangle width="40" height="12" as="alternateBounds"/>
                    </mxGeometry>
                </mxCell>
                <mxCell id="54" value="" style="swimlane;swimlaneHead=0;swimlaneBody=0;fontStyle=0;connectable=0;strokeColor=inherit;fillColor=none;startSize=0;collapsible=0;recursiveResize=0;expand=0;fontSize=16;" parent="51" vertex="1">
                    <mxGeometry x="120" width="40" height="12" as="geometry">
                        <mxRectangle width="40" height="12" as="alternateBounds"/>
                    </mxGeometry>
                </mxCell>
                <mxCell id="55" value="" style="shape=tableRow;horizontal=0;swimlaneHead=0;swimlaneBody=0;top=0;left=0;strokeColor=inherit;bottom=0;right=0;dropTarget=0;fontStyle=0;fillColor=none;points=[[0,0.5],[1,0.5]];portConstraint=eastwest;startSize=40;collapsible=0;recursiveResize=0;expand=0;fontSize=16;" parent="46" vertex="1">
                    <mxGeometry y="47" width="160" height="13" as="geometry"/>
                </mxCell>
                <mxCell id="56" value="" style="swimlane;swimlaneHead=0;swimlaneBody=0;fontStyle=0;connectable=0;strokeColor=inherit;fillColor=none;startSize=0;collapsible=0;recursiveResize=0;expand=0;fontSize=16;" parent="55" vertex="1">
                    <mxGeometry x="40" width="40" height="13" as="geometry">
                        <mxRectangle width="40" height="13" as="alternateBounds"/>
                    </mxGeometry>
                </mxCell>
                <mxCell id="57" value="" style="swimlane;swimlaneHead=0;swimlaneBody=0;fontStyle=0;connectable=0;strokeColor=inherit;fillColor=none;startSize=0;collapsible=0;recursiveResize=0;expand=0;fontSize=16;" parent="55" vertex="1">
                    <mxGeometry x="80" width="40" height="13" as="geometry">
                        <mxRectangle width="40" height="13" as="alternateBounds"/>
                    </mxGeometry>
                </mxCell>
                <mxCell id="58" value="" style="swimlane;swimlaneHead=0;swimlaneBody=0;fontStyle=0;connectable=0;strokeColor=inherit;fillColor=none;startSize=0;collapsible=0;recursiveResize=0;expand=0;fontSize=16;" parent="55" vertex="1">
                    <mxGeometry x="120" width="40" height="13" as="geometry">
                        <mxRectangle width="40" height="13" as="alternateBounds"/>
                    </mxGeometry>
                </mxCell>
                <mxCell id="73" value="ctrlx_signals" style="shape=table;childLayout=tableLayout;startSize=20;collapsible=0;recursiveResize=0;expand=0;fontSize=16;" parent="1" vertex="1">
                    <mxGeometry x="781" y="702" width="160" height="60" as="geometry"/>
                </mxCell>
                <mxCell id="74" value="" style="shape=tableRow;horizontal=0;swimlaneHead=0;swimlaneBody=0;top=0;left=0;strokeColor=inherit;bottom=0;right=0;dropTarget=0;fontStyle=0;fillColor=none;points=[[0,0.5],[1,0.5]];portConstraint=eastwest;startSize=40;collapsible=0;recursiveResize=0;expand=0;fontSize=16;" parent="73" vertex="1">
                    <mxGeometry y="20" width="160" height="15" as="geometry"/>
                </mxCell>
                <mxCell id="75" value="" style="swimlane;swimlaneHead=0;swimlaneBody=0;fontStyle=0;strokeColor=inherit;connectable=0;fillColor=none;startSize=40;collapsible=0;recursiveResize=0;expand=0;fontSize=16;" parent="74" vertex="1">
                    <mxGeometry x="40" width="40" height="15" as="geometry">
                        <mxRectangle width="40" height="15" as="alternateBounds"/>
                    </mxGeometry>
                </mxCell>
                <mxCell id="76" value="" style="swimlane;swimlaneHead=0;swimlaneBody=0;fontStyle=0;strokeColor=inherit;connectable=0;fillColor=none;startSize=40;collapsible=0;recursiveResize=0;expand=0;fontSize=16;" parent="74" vertex="1">
                    <mxGeometry x="80" width="40" height="15" as="geometry">
                        <mxRectangle width="40" height="15" as="alternateBounds"/>
                    </mxGeometry>
                </mxCell>
                <mxCell id="77" value="" style="swimlane;swimlaneHead=0;swimlaneBody=0;fontStyle=0;strokeColor=inherit;connectable=0;fillColor=none;startSize=40;collapsible=0;recursiveResize=0;expand=0;fontSize=16;" parent="74" vertex="1">
                    <mxGeometry x="120" width="40" height="15" as="geometry">
                        <mxRectangle width="40" height="15" as="alternateBounds"/>
                    </mxGeometry>
                </mxCell>
                <mxCell id="78" value="" style="shape=tableRow;horizontal=0;swimlaneHead=0;swimlaneBody=0;top=0;left=0;strokeColor=inherit;bottom=0;right=0;dropTarget=0;fontStyle=0;fillColor=none;points=[[0,0.5],[1,0.5]];portConstraint=eastwest;startSize=40;collapsible=0;recursiveResize=0;expand=0;fontSize=16;" parent="73" vertex="1">
                    <mxGeometry y="35" width="160" height="12" as="geometry"/>
                </mxCell>
                <mxCell id="79" value="" style="swimlane;swimlaneHead=0;swimlaneBody=0;fontStyle=0;connectable=0;strokeColor=inherit;fillColor=none;startSize=0;collapsible=0;recursiveResize=0;expand=0;fontSize=16;" parent="78" vertex="1">
                    <mxGeometry x="40" width="40" height="12" as="geometry">
                        <mxRectangle width="40" height="12" as="alternateBounds"/>
                    </mxGeometry>
                </mxCell>
                <mxCell id="80" value="" style="swimlane;swimlaneHead=0;swimlaneBody=0;fontStyle=0;connectable=0;strokeColor=inherit;fillColor=none;startSize=0;collapsible=0;recursiveResize=0;expand=0;fontSize=16;" parent="78" vertex="1">
                    <mxGeometry x="80" width="40" height="12" as="geometry">
                        <mxRectangle width="40" height="12" as="alternateBounds"/>
                    </mxGeometry>
                </mxCell>
                <mxCell id="81" value="" style="swimlane;swimlaneHead=0;swimlaneBody=0;fontStyle=0;connectable=0;strokeColor=inherit;fillColor=none;startSize=0;collapsible=0;recursiveResize=0;expand=0;fontSize=16;" parent="78" vertex="1">
                    <mxGeometry x="120" width="40" height="12" as="geometry">
                        <mxRectangle width="40" height="12" as="alternateBounds"/>
                    </mxGeometry>
                </mxCell>
                <mxCell id="82" value="" style="shape=tableRow;horizontal=0;swimlaneHead=0;swimlaneBody=0;top=0;left=0;strokeColor=inherit;bottom=0;right=0;dropTarget=0;fontStyle=0;fillColor=none;points=[[0,0.5],[1,0.5]];portConstraint=eastwest;startSize=40;collapsible=0;recursiveResize=0;expand=0;fontSize=16;" parent="73" vertex="1">
                    <mxGeometry y="47" width="160" height="13" as="geometry"/>
                </mxCell>
                <mxCell id="83" value="" style="swimlane;swimlaneHead=0;swimlaneBody=0;fontStyle=0;connectable=0;strokeColor=inherit;fillColor=none;startSize=0;collapsible=0;recursiveResize=0;expand=0;fontSize=16;" parent="82" vertex="1">
                    <mxGeometry x="40" width="40" height="13" as="geometry">
                        <mxRectangle width="40" height="13" as="alternateBounds"/>
                    </mxGeometry>
                </mxCell>
                <mxCell id="84" value="" style="swimlane;swimlaneHead=0;swimlaneBody=0;fontStyle=0;connectable=0;strokeColor=inherit;fillColor=none;startSize=0;collapsible=0;recursiveResize=0;expand=0;fontSize=16;" parent="82" vertex="1">
                    <mxGeometry x="80" width="40" height="13" as="geometry">
                        <mxRectangle width="40" height="13" as="alternateBounds"/>
                    </mxGeometry>
                </mxCell>
                <mxCell id="85" value="" style="swimlane;swimlaneHead=0;swimlaneBody=0;fontStyle=0;connectable=0;strokeColor=inherit;fillColor=none;startSize=0;collapsible=0;recursiveResize=0;expand=0;fontSize=16;" parent="82" vertex="1">
                    <mxGeometry x="120" width="40" height="13" as="geometry">
                        <mxRectangle width="40" height="13" as="alternateBounds"/>
                    </mxGeometry>
                </mxCell>
                <mxCell id="88" value="Wide Table 100ms" style="shape=table;childLayout=tableLayout;startSize=20;collapsible=0;recursiveResize=0;expand=0;fontSize=16;strokeColor=#00994D;fontColor=#00994D;" parent="1" vertex="1">
                    <mxGeometry x="1131" y="320" width="160" height="60" as="geometry"/>
                </mxCell>
                <mxCell id="89" value="" style="shape=tableRow;horizontal=0;swimlaneHead=0;swimlaneBody=0;top=0;left=0;strokeColor=inherit;bottom=0;right=0;dropTarget=0;fontStyle=0;fillColor=none;points=[[0,0.5],[1,0.5]];portConstraint=eastwest;startSize=40;collapsible=0;recursiveResize=0;expand=0;fontSize=16;" parent="88" vertex="1">
                    <mxGeometry y="20" width="160" height="15" as="geometry"/>
                </mxCell>
                <mxCell id="90" value="" style="swimlane;swimlaneHead=0;swimlaneBody=0;fontStyle=0;strokeColor=inherit;connectable=0;fillColor=none;startSize=40;collapsible=0;recursiveResize=0;expand=0;fontSize=16;" parent="89" vertex="1">
                    <mxGeometry x="40" width="40" height="15" as="geometry">
                        <mxRectangle width="40" height="15" as="alternateBounds"/>
                    </mxGeometry>
                </mxCell>
                <mxCell id="91" value="" style="swimlane;swimlaneHead=0;swimlaneBody=0;fontStyle=0;strokeColor=inherit;connectable=0;fillColor=none;startSize=40;collapsible=0;recursiveResize=0;expand=0;fontSize=16;" parent="89" vertex="1">
                    <mxGeometry x="80" width="40" height="15" as="geometry">
                        <mxRectangle width="40" height="15" as="alternateBounds"/>
                    </mxGeometry>
                </mxCell>
                <mxCell id="92" value="" style="swimlane;swimlaneHead=0;swimlaneBody=0;fontStyle=0;strokeColor=inherit;connectable=0;fillColor=none;startSize=40;collapsible=0;recursiveResize=0;expand=0;fontSize=16;" parent="89" vertex="1">
                    <mxGeometry x="120" width="40" height="15" as="geometry">
                        <mxRectangle width="40" height="15" as="alternateBounds"/>
                    </mxGeometry>
                </mxCell>
                <mxCell id="93" value="" style="shape=tableRow;horizontal=0;swimlaneHead=0;swimlaneBody=0;top=0;left=0;strokeColor=inherit;bottom=0;right=0;dropTarget=0;fontStyle=0;fillColor=none;points=[[0,0.5],[1,0.5]];portConstraint=eastwest;startSize=40;collapsible=0;recursiveResize=0;expand=0;fontSize=16;" parent="88" vertex="1">
                    <mxGeometry y="35" width="160" height="12" as="geometry"/>
                </mxCell>
                <mxCell id="94" value="" style="swimlane;swimlaneHead=0;swimlaneBody=0;fontStyle=0;connectable=0;strokeColor=inherit;fillColor=none;startSize=0;collapsible=0;recursiveResize=0;expand=0;fontSize=16;" parent="93" vertex="1">
                    <mxGeometry x="40" width="40" height="12" as="geometry">
                        <mxRectangle width="40" height="12" as="alternateBounds"/>
                    </mxGeometry>
                </mxCell>
                <mxCell id="95" value="" style="swimlane;swimlaneHead=0;swimlaneBody=0;fontStyle=0;connectable=0;strokeColor=inherit;fillColor=none;startSize=0;collapsible=0;recursiveResize=0;expand=0;fontSize=16;" parent="93" vertex="1">
                    <mxGeometry x="80" width="40" height="12" as="geometry">
                        <mxRectangle width="40" height="12" as="alternateBounds"/>
                    </mxGeometry>
                </mxCell>
                <mxCell id="96" value="" style="swimlane;swimlaneHead=0;swimlaneBody=0;fontStyle=0;connectable=0;strokeColor=inherit;fillColor=none;startSize=0;collapsible=0;recursiveResize=0;expand=0;fontSize=16;" parent="93" vertex="1">
                    <mxGeometry x="120" width="40" height="12" as="geometry">
                        <mxRectangle width="40" height="12" as="alternateBounds"/>
                    </mxGeometry>
                </mxCell>
                <mxCell id="97" value="" style="shape=tableRow;horizontal=0;swimlaneHead=0;swimlaneBody=0;top=0;left=0;strokeColor=inherit;bottom=0;right=0;dropTarget=0;fontStyle=0;fillColor=none;points=[[0,0.5],[1,0.5]];portConstraint=eastwest;startSize=40;collapsible=0;recursiveResize=0;expand=0;fontSize=16;" parent="88" vertex="1">
                    <mxGeometry y="47" width="160" height="13" as="geometry"/>
                </mxCell>
                <mxCell id="98" value="" style="swimlane;swimlaneHead=0;swimlaneBody=0;fontStyle=0;connectable=0;strokeColor=inherit;fillColor=none;startSize=0;collapsible=0;recursiveResize=0;expand=0;fontSize=16;" parent="97" vertex="1">
                    <mxGeometry x="40" width="40" height="13" as="geometry">
                        <mxRectangle width="40" height="13" as="alternateBounds"/>
                    </mxGeometry>
                </mxCell>
                <mxCell id="99" value="" style="swimlane;swimlaneHead=0;swimlaneBody=0;fontStyle=0;connectable=0;strokeColor=inherit;fillColor=none;startSize=0;collapsible=0;recursiveResize=0;expand=0;fontSize=16;" parent="97" vertex="1">
                    <mxGeometry x="80" width="40" height="13" as="geometry">
                        <mxRectangle width="40" height="13" as="alternateBounds"/>
                    </mxGeometry>
                </mxCell>
                <mxCell id="100" value="" style="swimlane;swimlaneHead=0;swimlaneBody=0;fontStyle=0;connectable=0;strokeColor=inherit;fillColor=none;startSize=0;collapsible=0;recursiveResize=0;expand=0;fontSize=16;" parent="97" vertex="1">
                    <mxGeometry x="120" width="40" height="13" as="geometry">
                        <mxRectangle width="40" height="13" as="alternateBounds"/>
                    </mxGeometry>
                </mxCell>
                <mxCell id="101" value="Wide Table 1S" style="shape=table;childLayout=tableLayout;startSize=20;collapsible=0;recursiveResize=0;expand=0;fontSize=16;strokeColor=#00994D;fontColor=#00994D;" parent="1" vertex="1">
                    <mxGeometry x="1131" y="435" width="160" height="60" as="geometry"/>
                </mxCell>
                <mxCell id="102" value="" style="shape=tableRow;horizontal=0;swimlaneHead=0;swimlaneBody=0;top=0;left=0;strokeColor=inherit;bottom=0;right=0;dropTarget=0;fontStyle=0;fillColor=none;points=[[0,0.5],[1,0.5]];portConstraint=eastwest;startSize=40;collapsible=0;recursiveResize=0;expand=0;fontSize=16;" parent="101" vertex="1">
                    <mxGeometry y="20" width="160" height="15" as="geometry"/>
                </mxCell>
                <mxCell id="103" value="" style="swimlane;swimlaneHead=0;swimlaneBody=0;fontStyle=0;strokeColor=inherit;connectable=0;fillColor=none;startSize=40;collapsible=0;recursiveResize=0;expand=0;fontSize=16;" parent="102" vertex="1">
                    <mxGeometry x="40" width="40" height="15" as="geometry">
                        <mxRectangle width="40" height="15" as="alternateBounds"/>
                    </mxGeometry>
                </mxCell>
                <mxCell id="104" value="" style="swimlane;swimlaneHead=0;swimlaneBody=0;fontStyle=0;strokeColor=inherit;connectable=0;fillColor=none;startSize=40;collapsible=0;recursiveResize=0;expand=0;fontSize=16;" parent="102" vertex="1">
                    <mxGeometry x="80" width="40" height="15" as="geometry">
                        <mxRectangle width="40" height="15" as="alternateBounds"/>
                    </mxGeometry>
                </mxCell>
                <mxCell id="105" value="" style="swimlane;swimlaneHead=0;swimlaneBody=0;fontStyle=0;strokeColor=inherit;connectable=0;fillColor=none;startSize=40;collapsible=0;recursiveResize=0;expand=0;fontSize=16;" parent="102" vertex="1">
                    <mxGeometry x="120" width="40" height="15" as="geometry">
                        <mxRectangle width="40" height="15" as="alternateBounds"/>
                    </mxGeometry>
                </mxCell>
                <mxCell id="106" value="" style="shape=tableRow;horizontal=0;swimlaneHead=0;swimlaneBody=0;top=0;left=0;strokeColor=inherit;bottom=0;right=0;dropTarget=0;fontStyle=0;fillColor=none;points=[[0,0.5],[1,0.5]];portConstraint=eastwest;startSize=40;collapsible=0;recursiveResize=0;expand=0;fontSize=16;" parent="101" vertex="1">
                    <mxGeometry y="35" width="160" height="12" as="geometry"/>
                </mxCell>
                <mxCell id="107" value="" style="swimlane;swimlaneHead=0;swimlaneBody=0;fontStyle=0;connectable=0;strokeColor=inherit;fillColor=none;startSize=0;collapsible=0;recursiveResize=0;expand=0;fontSize=16;" parent="106" vertex="1">
                    <mxGeometry x="40" width="40" height="12" as="geometry">
                        <mxRectangle width="40" height="12" as="alternateBounds"/>
                    </mxGeometry>
                </mxCell>
                <mxCell id="108" value="" style="swimlane;swimlaneHead=0;swimlaneBody=0;fontStyle=0;connectable=0;strokeColor=inherit;fillColor=none;startSize=0;collapsible=0;recursiveResize=0;expand=0;fontSize=16;" parent="106" vertex="1">
                    <mxGeometry x="80" width="40" height="12" as="geometry">
                        <mxRectangle width="40" height="12" as="alternateBounds"/>
                    </mxGeometry>
                </mxCell>
                <mxCell id="109" value="" style="swimlane;swimlaneHead=0;swimlaneBody=0;fontStyle=0;connectable=0;strokeColor=inherit;fillColor=none;startSize=0;collapsible=0;recursiveResize=0;expand=0;fontSize=16;" parent="106" vertex="1">
                    <mxGeometry x="120" width="40" height="12" as="geometry">
                        <mxRectangle width="40" height="12" as="alternateBounds"/>
                    </mxGeometry>
                </mxCell>
                <mxCell id="110" value="" style="shape=tableRow;horizontal=0;swimlaneHead=0;swimlaneBody=0;top=0;left=0;strokeColor=inherit;bottom=0;right=0;dropTarget=0;fontStyle=0;fillColor=none;points=[[0,0.5],[1,0.5]];portConstraint=eastwest;startSize=40;collapsible=0;recursiveResize=0;expand=0;fontSize=16;" parent="101" vertex="1">
                    <mxGeometry y="47" width="160" height="13" as="geometry"/>
                </mxCell>
                <mxCell id="111" value="" style="swimlane;swimlaneHead=0;swimlaneBody=0;fontStyle=0;connectable=0;strokeColor=inherit;fillColor=none;startSize=0;collapsible=0;recursiveResize=0;expand=0;fontSize=16;" parent="110" vertex="1">
                    <mxGeometry x="40" width="40" height="13" as="geometry">
                        <mxRectangle width="40" height="13" as="alternateBounds"/>
                    </mxGeometry>
                </mxCell>
                <mxCell id="112" value="" style="swimlane;swimlaneHead=0;swimlaneBody=0;fontStyle=0;connectable=0;strokeColor=inherit;fillColor=none;startSize=0;collapsible=0;recursiveResize=0;expand=0;fontSize=16;" parent="110" vertex="1">
                    <mxGeometry x="80" width="40" height="13" as="geometry">
                        <mxRectangle width="40" height="13" as="alternateBounds"/>
                    </mxGeometry>
                </mxCell>
                <mxCell id="113" value="" style="swimlane;swimlaneHead=0;swimlaneBody=0;fontStyle=0;connectable=0;strokeColor=inherit;fillColor=none;startSize=0;collapsible=0;recursiveResize=0;expand=0;fontSize=16;" parent="110" vertex="1">
                    <mxGeometry x="120" width="40" height="13" as="geometry">
                        <mxRectangle width="40" height="13" as="alternateBounds"/>
                    </mxGeometry>
                </mxCell>
                <mxCell id="131" value="" style="edgeStyle=elbowEdgeStyle;elbow=horizontal;endArrow=classic;html=1;curved=0;rounded=0;endSize=8;startSize=8;exitX=0.5;exitY=0;exitDx=0;exitDy=0;entryX=0;entryY=0.5;entryDx=0;entryDy=0;" parent="1" source="10" target="150" edge="1">
                    <mxGeometry width="50" height="50" relative="1" as="geometry">
                        <mxPoint x="901" y="370" as="sourcePoint"/>
                        <mxPoint x="731" y="290" as="targetPoint"/>
                        <Array as="points">
                            <mxPoint x="581" y="290"/>
                        </Array>
                    </mxGeometry>
                </mxCell>
                <mxCell id="140" value="refresh_ctrlx_signals()" style="rounded=1;html=1;fillColor=#66B2FF;whiteSpace=wrap;fontColor=#FFFFFF;opacity=70;" parent="1" vertex="1">
                    <mxGeometry x="591" y="715" width="140" height="30" as="geometry"/>
                </mxCell>
                <mxCell id="150" value="initialize_temp_columns_for_&lt;br&gt;frequency()" style="rounded=1;html=1;fillColor=#66B2FF;whiteSpace=wrap;fontColor=#FFFFFF;opacity=70;" parent="1" vertex="1">
                    <mxGeometry x="651" y="141.5" width="160" height="30" as="geometry"/>
                </mxCell>
                <mxCell id="153" value="initialize_columns_for_&lt;br&gt;frequency()" style="rounded=1;html=1;fillColor=#66B2FF;whiteSpace=wrap;fontColor=#FFFFFF;opacity=70;" parent="1" vertex="1">
                    <mxGeometry x="871" y="110" width="160" height="30" as="geometry"/>
                </mxCell>
                <mxCell id="154" value="" style="edgeStyle=elbowEdgeStyle;elbow=horizontal;endArrow=classic;html=1;curved=0;rounded=0;endSize=8;startSize=8;exitX=1;exitY=0.5;exitDx=0;exitDy=0;entryX=0;entryY=0.25;entryDx=0;entryDy=0;" parent="1" source="150" target="19" edge="1">
                    <mxGeometry width="50" height="50" relative="1" as="geometry">
                        <mxPoint x="961" y="340" as="sourcePoint"/>
                        <mxPoint x="1011" y="290" as="targetPoint"/>
                        <Array as="points">
                            <mxPoint x="831" y="240"/>
                        </Array>
                    </mxGeometry>
                </mxCell>
                <mxCell id="155" value="" style="edgeStyle=elbowEdgeStyle;elbow=horizontal;endArrow=classic;html=1;curved=0;rounded=0;endSize=8;startSize=8;exitX=0.5;exitY=0;exitDx=0;exitDy=0;entryX=0;entryY=0.5;entryDx=0;entryDy=0;" parent="1" source="10" target="153" edge="1">
                    <mxGeometry width="50" height="50" relative="1" as="geometry">
                        <mxPoint x="571" y="340" as="sourcePoint"/>
                        <mxPoint x="671" y="190" as="targetPoint"/>
                        <Array as="points">
                            <mxPoint x="581" y="270"/>
                        </Array>
                    </mxGeometry>
                </mxCell>
                <mxCell id="157" value="" style="edgeStyle=elbowEdgeStyle;elbow=horizontal;endArrow=classic;html=1;curved=0;rounded=0;endSize=8;startSize=8;exitX=1;exitY=0.5;exitDx=0;exitDy=0;entryX=0;entryY=0.25;entryDx=0;entryDy=0;" parent="1" source="153" target="88" edge="1">
                    <mxGeometry width="50" height="50" relative="1" as="geometry">
                        <mxPoint x="821" y="225" as="sourcePoint"/>
                        <mxPoint x="1061" y="342" as="targetPoint"/>
                        <Array as="points">
                            <mxPoint x="1111" y="230"/>
                        </Array>
                    </mxGeometry>
                </mxCell>
                <mxCell id="158" value="Pivot_ctrlx&lt;br&gt;_data()" style="rounded=1;html=1;fillColor=#66B2FF;whiteSpace=wrap;fontColor=#FFFFFF;opacity=70;" parent="1" vertex="1">
                    <mxGeometry x="641" y="195" width="90" height="30" as="geometry"/>
                </mxCell>
                <mxCell id="165" value="sync_ctrlx_&lt;br&gt;pivot_table()" style="rounded=1;html=1;fillColor=#66B2FF;whiteSpace=wrap;fontColor=#FFFFFF;opacity=70;" parent="1" vertex="1">
                    <mxGeometry x="931" y="190" width="80" height="30" as="geometry"/>
                </mxCell>
                <mxCell id="171" value="" style="edgeStyle=elbowEdgeStyle;elbow=horizontal;endArrow=classic;html=1;curved=0;rounded=0;endSize=8;startSize=8;entryX=0;entryY=0.5;entryDx=0;entryDy=0;exitX=0.5;exitY=0;exitDx=0;exitDy=0;" parent="1" source="10" target="158" edge="1">
                    <mxGeometry width="50" height="50" relative="1" as="geometry">
                        <mxPoint x="581" y="390" as="sourcePoint"/>
                        <mxPoint x="781" y="475" as="targetPoint"/>
                        <Array as="points">
                            <mxPoint x="581" y="310"/>
                        </Array>
                    </mxGeometry>
                </mxCell>
                <mxCell id="173" value="" style="edgeStyle=elbowEdgeStyle;elbow=vertical;endArrow=classic;html=1;curved=0;rounded=0;endSize=8;startSize=8;exitX=0.5;exitY=0;exitDx=0;exitDy=0;fontColor=#FF8000;strokeColor=#FF8000;strokeWidth=3.5;" parent="1" source="10" target="166" edge="1">
                    <mxGeometry width="50" height="50" relative="1" as="geometry">
                        <mxPoint x="1111" y="330" as="sourcePoint"/>
                        <mxPoint x="1161" y="280" as="targetPoint"/>
                        <Array as="points">
                            <mxPoint x="1021" y="80"/>
                        </Array>
                    </mxGeometry>
                </mxCell>
                <mxCell id="176" value="&lt;font style=&quot;font-size: 18px; color: rgb(255, 128, 0);&quot;&gt;PG cron Jobs&lt;/font&gt;" style="edgeLabel;html=1;align=center;verticalAlign=middle;resizable=0;points=[];" parent="173" vertex="1" connectable="0">
                    <mxGeometry x="-0.0921" y="-1" relative="1" as="geometry">
                        <mxPoint x="92" as="offset"/>
                    </mxGeometry>
                </mxCell>
                <mxCell id="174" value="" style="edgeStyle=elbowEdgeStyle;elbow=horizontal;endArrow=classic;html=1;curved=0;rounded=0;endSize=8;startSize=8;exitX=0.5;exitY=1;exitDx=0;exitDy=0;entryX=0.5;entryY=1;entryDx=0;entryDy=0;strokeWidth=3.5;strokeColor=#FF8000;" parent="1" source="166" target="10" edge="1">
                    <mxGeometry width="50" height="50" relative="1" as="geometry">
                        <mxPoint x="561" y="375" as="sourcePoint"/>
                        <mxPoint x="1506" y="266" as="targetPoint"/>
                        <Array as="points">
                            <mxPoint x="941" y="810"/>
                        </Array>
                    </mxGeometry>
                </mxCell>
                <mxCell id="175" value="&lt;font style=&quot;font-size: 14px; color: rgb(255, 128, 0);&quot;&gt;Recall last timestamp&lt;/font&gt;" style="edgeLabel;html=1;align=center;verticalAlign=middle;resizable=0;points=[];" parent="174" vertex="1" connectable="0">
                    <mxGeometry x="0.4757" relative="1" as="geometry">
                        <mxPoint x="346" as="offset"/>
                    </mxGeometry>
                </mxCell>
                <mxCell id="177" value="Final tables -&amp;nbsp;specific frecuency" style="text;strokeColor=none;fillColor=none;html=1;verticalAlign=middle;align=center;fontColor=#B3B3B3;fontSize=15;" parent="1" vertex="1">
                    <mxGeometry x="1109.75" y="625" width="192.5" height="30" as="geometry"/>
                </mxCell>
                <mxCell id="178" value="&lt;span style=&quot;white-space: pre;&quot;&gt;&#x9;&lt;/span&gt;Jobs every 5 minutes :&lt;br&gt;&lt;span style=&quot;white-space: pre;&quot;&gt;&#x9;&lt;/span&gt;1 update ctrlx_signals&lt;div&gt;&lt;span style=&quot;white-space: pre;&quot;&gt;&#x9;&lt;/span&gt;2 pivot 100ms&lt;/div&gt;&lt;div&gt;&lt;span style=&quot;white-space: pre;&quot;&gt;&#x9;&lt;/span&gt;3 pivot 1s&lt;br&gt;&lt;span style=&quot;white-space: pre;&quot;&gt;&#x9;&lt;/span&gt;4 pivot 1m&lt;/div&gt;" style="rounded=1;html=1;fillColor=#ffe6cc;whiteSpace=wrap;align=left;strokeColor=#d79b00;fontStyle=1" parent="1" vertex="1">
                    <mxGeometry x="986" y="690" width="190" height="90" as="geometry"/>
                </mxCell>
                <mxCell id="283" style="edgeStyle=none;html=1;exitX=0.5;exitY=1;exitDx=0;exitDy=0;entryX=0.5;entryY=0;entryDx=0;entryDy=0;dashed=1;" parent="1" source="181" target="182" edge="1">
                    <mxGeometry relative="1" as="geometry"/>
                </mxCell>
                <mxCell id="181" value="&lt;font style=&quot;font-size: 18px; color: rgb(181, 181, 181);&quot;&gt;UMC&lt;/font&gt;" style="rounded=0;whiteSpace=wrap;html=1;dashed=1;" parent="1" vertex="1">
                    <mxGeometry x="61" y="260" width="120" height="30" as="geometry"/>
                </mxCell>
                <mxCell id="182" value="&lt;font style=&quot;color: rgb(201, 201, 201);&quot;&gt;Mongo DB&lt;br&gt;Indlux DB&lt;/font&gt;" style="shape=hexagon;perimeter=hexagonPerimeter2;whiteSpace=wrap;html=1;fixedSize=1;dashed=1;" parent="1" vertex="1">
                    <mxGeometry x="76" y="330.75" width="90" height="50" as="geometry"/>
                </mxCell>
                <mxCell id="183" value="&lt;font style=&quot;color: rgb(255, 255, 255);&quot;&gt;SQL &lt;br&gt;Relational DB&lt;br&gt;(postgres)&lt;/font&gt;" style="shape=cylinder3;whiteSpace=wrap;html=1;boundedLbl=1;backgroundOutline=1;size=15;fillColor=#989898;fontColor=#333333;strokeColor=#666666;" parent="1" vertex="1">
                    <mxGeometry x="341" y="310" width="90" height="91.5" as="geometry"/>
                </mxCell>
                <mxCell id="186" value="SSD3 - ETL" style="rounded=0;html=1;fillColor=#009999;strokeColor=#009999;dashed=1;dashPattern=1 1;fontSize=16;fontColor=#FFFFFF;fontStyle=1;opacity=50;" parent="1" vertex="1">
                    <mxGeometry x="251" y="270" width="140" height="20" as="geometry"/>
                </mxCell>
                <mxCell id="189" value="" style="edgeStyle=elbowEdgeStyle;elbow=horizontal;endArrow=classic;html=1;curved=0;rounded=0;endSize=8;startSize=8;entryX=0;entryY=0.5;entryDx=0;entryDy=0;exitX=1;exitY=0.5;exitDx=0;exitDy=0;exitPerimeter=0;strokeWidth=2;strokeColor=#66B2FF;fontColor=#66B2FF;" parent="1" source="183" target="10" edge="1">
                    <mxGeometry width="50" height="50" relative="1" as="geometry">
                        <mxPoint x="611" y="475" as="sourcePoint"/>
                        <mxPoint x="651" y="475" as="targetPoint"/>
                        <Array as="points">
                            <mxPoint x="461" y="410"/>
                        </Array>
                    </mxGeometry>
                </mxCell>
                <mxCell id="191" value="" style="edgeStyle=elbowEdgeStyle;elbow=horizontal;endArrow=classic;html=1;curved=0;rounded=0;endSize=8;startSize=8;entryX=1;entryY=0.5;entryDx=0;entryDy=0;exitX=0.316;exitY=1.002;exitDx=0;exitDy=0;exitPerimeter=0;dashed=1;" parent="1" target="181" edge="1">
                    <mxGeometry width="50" height="50" relative="1" as="geometry">
                        <mxPoint x="198.50112000000001" y="238.82734" as="sourcePoint"/>
                        <mxPoint x="551" y="340" as="targetPoint"/>
                        <Array as="points">
                            <mxPoint x="200" y="280"/>
                        </Array>
                    </mxGeometry>
                </mxCell>
                <mxCell id="193" value="" style="edgeStyle=segmentEdgeStyle;endArrow=classic;html=1;curved=0;rounded=0;endSize=8;startSize=8;exitX=0.5;exitY=1;exitDx=0;exitDy=0;entryX=0;entryY=0.5;entryDx=0;entryDy=0;strokeWidth=2;strokeColor=#66B2FF;" parent="1" target="186" edge="1">
                    <mxGeometry width="50" height="50" relative="1" as="geometry">
                        <mxPoint x="226.15999999999997" y="238.67000000000002" as="sourcePoint"/>
                        <mxPoint x="541" y="340" as="targetPoint"/>
                        <Array as="points">
                            <mxPoint x="226" y="280"/>
                        </Array>
                    </mxGeometry>
                </mxCell>
                <mxCell id="199" value="" style="sketch=0;pointerEvents=1;shadow=0;dashed=0;html=1;strokeColor=#B20000;labelPosition=center;verticalLabelPosition=bottom;verticalAlign=top;align=center;fillColor=#e51400;shape=mxgraph.mscae.intune.alerts;fontColor=#ffffff;" parent="1" vertex="1">
                    <mxGeometry x="231" y="426.5" width="20" height="18.5" as="geometry"/>
                </mxCell>
                <mxCell id="201" value="" style="edgeStyle=elbowEdgeStyle;elbow=horizontal;endArrow=classic;html=1;curved=0;rounded=0;endSize=8;startSize=8;entryX=0;entryY=0.5;entryDx=0;entryDy=0;entryPerimeter=0;dashed=1;exitX=0.5;exitY=1;exitDx=0;exitDy=0;" parent="1" source="182" target="199" edge="1">
                    <mxGeometry width="50" height="50" relative="1" as="geometry">
                        <mxPoint x="121" y="450" as="sourcePoint"/>
                        <mxPoint x="251" y="552" as="targetPoint"/>
                        <Array as="points">
                            <mxPoint x="121" y="410"/>
                        </Array>
                    </mxGeometry>
                </mxCell>
                <mxCell id="202" value="" style="edgeStyle=elbowEdgeStyle;elbow=horizontal;endArrow=classic;html=1;curved=0;rounded=0;endSize=8;startSize=8;exitX=1;exitY=0.5;exitDx=0;exitDy=0;entryX=0.5;entryY=1;entryDx=0;entryDy=0;entryPerimeter=0;exitPerimeter=0;dashed=1;" parent="1" source="199" target="183" edge="1">
                    <mxGeometry width="50" height="50" relative="1" as="geometry">
                        <mxPoint x="131" y="517" as="sourcePoint"/>
                        <mxPoint x="261" y="603" as="targetPoint"/>
                        <Array as="points">
                            <mxPoint x="386" y="430"/>
                        </Array>
                    </mxGeometry>
                </mxCell>
                <mxCell id="203" value="&lt;i&gt;Possible but not done&lt;/i&gt;" style="edgeLabel;html=1;align=center;verticalAlign=middle;resizable=0;points=[];" parent="202" vertex="1" connectable="0">
                    <mxGeometry x="-0.7792" y="2" relative="1" as="geometry">
                        <mxPoint x="41" y="2" as="offset"/>
                    </mxGeometry>
                </mxCell>
                <mxCell id="204" value="&lt;div&gt;&lt;font style=&quot;color: rgb(255, 102, 102);&quot;&gt;- UMC: create a Local Data Base(DB)&lt;/font&gt;&lt;/div&gt;&lt;div&gt;&lt;span style=&quot;background-color: transparent;&quot;&gt;&lt;font style=&quot;color: rgb(255, 102, 102);&quot;&gt;-To move tha data from Mongo DB to warehause/Relational DB, ETL is required.&lt;/font&gt;&lt;/span&gt;&lt;/div&gt;&lt;div&gt;Ressource Lukas/Amine&lt;/div&gt;" style="rounded=0;whiteSpace=wrap;html=1;dashed=1;fontSize=10;" parent="1" vertex="1">
                    <mxGeometry x="71" y="453.5" width="360" height="46" as="geometry"/>
                </mxCell>
                <mxCell id="205" value="&lt;font style=&quot;color: rgb(255, 0, 128);&quot;&gt;CtrlX&lt;/font&gt;" style="rounded=1;whiteSpace=wrap;html=1;fontStyle=1;fontSize=24;strokeColor=#66B2FF;strokeWidth=3;" parent="1" vertex="1">
                    <mxGeometry x="151" y="180" width="120" height="60" as="geometry"/>
                </mxCell>
                <mxCell id="211" value="Data Storaged" style="text;strokeColor=none;fillColor=none;html=1;verticalAlign=middle;align=center;fontSize=15;fontStyle=1" parent="1" vertex="1">
                    <mxGeometry x="1098.5" y="270" width="192.5" height="30" as="geometry"/>
                </mxCell>
                <mxCell id="213" value="Machine Learning &lt;br&gt;Application" style="text;html=1;align=center;verticalAlign=middle;whiteSpace=wrap;rounded=0;fontSize=20;fontColor=#FF3399;fillColor=#FFFFFF;gradientColor=none;" parent="1" vertex="1">
                    <mxGeometry x="1400" y="138.5" width="190" height="40" as="geometry"/>
                </mxCell>
                <mxCell id="255" value="" style="group" parent="1" vertex="1" connectable="0">
                    <mxGeometry x="1401" y="213.25" width="192.5" height="565.25" as="geometry"/>
                </mxCell>
                <mxCell id="236" style="edgeStyle=none;html=1;exitX=0.5;exitY=1;exitDx=0;exitDy=0;entryX=0.5;entryY=0;entryDx=0;entryDy=0;" parent="255" source="226" target="231" edge="1">
                    <mxGeometry relative="1" as="geometry"/>
                </mxCell>
                <mxCell id="226" value="" style="rounded=0;whiteSpace=wrap;html=1;dashed=1;strokeColor=#6666FF;" parent="255" vertex="1">
                    <mxGeometry x="21.25" y="97" width="152.5" height="300" as="geometry"/>
                </mxCell>
                <mxCell id="215" value="Dagster Orquestrator" style="shape=parallelogram;perimeter=parallelogramPerimeter;whiteSpace=wrap;html=1;fixedSize=1;strokeColor=#9999FF;fontSize=14;fontStyle=2" parent="255" vertex="1">
                    <mxGeometry x="22.5" width="170" height="43.5" as="geometry"/>
                </mxCell>
                <mxCell id="250" style="edgeStyle=none;html=1;exitX=0.5;exitY=1;exitDx=0;exitDy=0;entryX=0.5;entryY=0;entryDx=0;entryDy=0;" parent="255" source="217" target="249" edge="1">
                    <mxGeometry relative="1" as="geometry"/>
                </mxCell>
                <mxCell id="217" value="Predict and storage" style="rounded=0;whiteSpace=wrap;html=1;" parent="255" vertex="1">
                    <mxGeometry x="47.5" y="477" width="100" height="33.5" as="geometry"/>
                </mxCell>
                <mxCell id="234" style="edgeStyle=none;html=1;exitX=0.5;exitY=1;exitDx=0;exitDy=0;" parent="255" source="218" target="219" edge="1">
                    <mxGeometry relative="1" as="geometry"/>
                </mxCell>
                <mxCell id="218" value="Training" style="rounded=0;whiteSpace=wrap;html=1;" parent="255" vertex="1">
                    <mxGeometry x="57.5" y="232.75" width="80" height="33.5" as="geometry"/>
                </mxCell>
                <mxCell id="219" value="Testing" style="rounded=0;whiteSpace=wrap;html=1;" parent="255" vertex="1">
                    <mxGeometry x="67.5" y="289.25" width="60" height="33.5" as="geometry"/>
                </mxCell>
                <mxCell id="220" value="Validation" style="rounded=0;whiteSpace=wrap;html=1;" parent="255" vertex="1">
                    <mxGeometry x="55" y="348.75" width="85" height="29.25" as="geometry"/>
                </mxCell>
                <mxCell id="233" style="edgeStyle=none;html=1;exitX=0.5;exitY=1;exitDx=0;exitDy=0;entryX=0.5;entryY=0;entryDx=0;entryDy=0;" parent="255" source="221" target="218" edge="1">
                    <mxGeometry relative="1" as="geometry"/>
                </mxCell>
                <mxCell id="221" value="Data Preprocessing" style="rounded=0;whiteSpace=wrap;html=1;" parent="255" vertex="1">
                    <mxGeometry x="52.5" y="172" width="90" height="33.5" as="geometry"/>
                </mxCell>
                <mxCell id="232" style="edgeStyle=none;html=1;exitX=0.5;exitY=1;exitDx=0;exitDy=0;entryX=0.5;entryY=0;entryDx=0;entryDy=0;" parent="255" source="222" target="221" edge="1">
                    <mxGeometry relative="1" as="geometry"/>
                </mxCell>
                <mxCell id="222" value="Data extraction(DB)" style="rounded=0;whiteSpace=wrap;html=1;" parent="255" vertex="1">
                    <mxGeometry x="52.5" y="112" width="90" height="33.5" as="geometry"/>
                </mxCell>
                <mxCell id="230" value="Model Generation" style="text;strokeColor=none;fillColor=none;html=1;verticalAlign=middle;align=center;fontColor=#B3B3B3;fontSize=15;" parent="255" vertex="1">
                    <mxGeometry y="67" width="192.5" height="30" as="geometry"/>
                </mxCell>
                <mxCell id="237" style="edgeStyle=none;html=1;exitX=0.5;exitY=1;exitDx=0;exitDy=0;entryX=0.5;entryY=0;entryDx=0;entryDy=0;" parent="255" source="231" target="217" edge="1">
                    <mxGeometry relative="1" as="geometry"/>
                </mxCell>
                <mxCell id="231" value="Model Release" style="text;strokeColor=none;fillColor=#CCCCFF;html=1;verticalAlign=middle;align=center;fontColor=#000000;fontSize=12;labelBackgroundColor=none;" parent="255" vertex="1">
                    <mxGeometry x="26.25" y="423.5" width="142.5" height="20" as="geometry"/>
                </mxCell>
                <mxCell id="235" style="edgeStyle=none;html=1;exitX=0.5;exitY=1;exitDx=0;exitDy=0;entryX=0.504;entryY=0.107;entryDx=0;entryDy=0;entryPerimeter=0;" parent="255" source="219" target="220" edge="1">
                    <mxGeometry relative="1" as="geometry"/>
                </mxCell>
                <mxCell id="249" value="Retraining with user feedback" style="rounded=0;whiteSpace=wrap;html=1;" parent="255" vertex="1">
                    <mxGeometry x="50" y="535.25" width="95" height="30" as="geometry"/>
                </mxCell>
                <mxCell id="252" value="" style="edgeStyle=elbowEdgeStyle;elbow=horizontal;endArrow=classic;html=1;curved=0;rounded=0;endSize=8;startSize=8;exitX=0;exitY=0.75;exitDx=0;exitDy=0;entryX=0;entryY=0.5;entryDx=0;entryDy=0;" parent="255" source="249" target="226" edge="1">
                    <mxGeometry width="50" height="50" relative="1" as="geometry">
                        <mxPoint x="-380" y="305.25" as="sourcePoint"/>
                        <mxPoint x="-330" y="255.25" as="targetPoint"/>
                        <Array as="points">
                            <mxPoint y="405.25"/>
                        </Array>
                    </mxGeometry>
                </mxCell>
                <mxCell id="279" value="" style="edgeStyle=elbowEdgeStyle;elbow=horizontal;endArrow=classic;html=1;curved=0;rounded=0;endSize=8;startSize=8;entryX=0;entryY=0.5;entryDx=0;entryDy=0;strokeWidth=2;strokeColor=#66B2FF;fontColor=#66B2FF;entryPerimeter=0;" parent="1" target="183" edge="1">
                    <mxGeometry width="50" height="50" relative="1" as="geometry">
                        <mxPoint x="306" y="290" as="sourcePoint"/>
                        <mxPoint x="511" y="475" as="targetPoint"/>
                        <Array as="points">
                            <mxPoint x="306" y="380"/>
                        </Array>
                    </mxGeometry>
                </mxCell>
                <mxCell id="280" value="" style="group" parent="1" vertex="1" connectable="0">
                    <mxGeometry x="61" y="520" width="410" height="270" as="geometry"/>
                </mxCell>
                <mxCell id="278" value="" style="rounded=0;whiteSpace=wrap;html=1;dashed=1;strokeColor=#009999;strokeWidth=4;opacity=50;" parent="280" vertex="1">
                    <mxGeometry width="409.9999999999999" height="270" as="geometry"/>
                </mxCell>
                <mxCell id="258" value="CtrlX" style="rounded=1;whiteSpace=wrap;html=1;fontSize=16;fontColor=#FF3399;fontStyle=1;dashed=1;dashPattern=8 8;" parent="280" vertex="1">
                    <mxGeometry x="8.541666666666664" y="24.545454545454543" width="102.49999999999997" height="32.015810276679844" as="geometry"/>
                </mxCell>
                <mxCell id="259" value="Extract OPCUA" style="rounded=0;whiteSpace=wrap;html=1;" parent="280" vertex="1">
                    <mxGeometry x="17.08333333333333" y="109.92094861660078" width="102.49999999999997" height="32.015810276679844" as="geometry"/>
                </mxCell>
                <mxCell id="270" style="edgeStyle=none;html=1;exitX=0.75;exitY=1;exitDx=0;exitDy=0;entryX=0.569;entryY=-0.01;entryDx=0;entryDy=0;entryPerimeter=0;" parent="280" source="262" target="261" edge="1">
                    <mxGeometry relative="1" as="geometry"/>
                </mxCell>
                <mxCell id="272" value="Topic:&amp;nbsp;&lt;div&gt;[ctrlx/transformed]&lt;/div&gt;" style="edgeLabel;html=1;align=center;verticalAlign=middle;resizable=0;points=[];" parent="270" vertex="1" connectable="0">
                    <mxGeometry x="0.02" y="3" relative="1" as="geometry">
                        <mxPoint as="offset"/>
                    </mxGeometry>
                </mxCell>
                <mxCell id="273" style="edgeStyle=none;html=1;exitX=0.5;exitY=0;exitDx=0;exitDy=0;entryX=0.25;entryY=1;entryDx=0;entryDy=0;" parent="280" target="262" edge="1">
                    <mxGeometry relative="1" as="geometry">
                        <mxPoint x="179.37499999999994" y="216.64031620553337" as="sourcePoint"/>
                        <mxPoint x="179.37499999999994" y="152.6086956521739" as="targetPoint"/>
                    </mxGeometry>
                </mxCell>
                <mxCell id="274" value="Client" style="edgeLabel;html=1;align=center;verticalAlign=middle;resizable=0;points=[];" parent="273" vertex="1" connectable="0">
                    <mxGeometry x="0.1448" relative="1" as="geometry">
                        <mxPoint as="offset"/>
                    </mxGeometry>
                </mxCell>
                <mxCell id="261" value="Solace (Local)" style="rounded=0;whiteSpace=wrap;html=1;fillColor=#009999;strokeColor=#009999;fontColor=#FFFFFF;gradientColor=none;opacity=50;" parent="280" vertex="1">
                    <mxGeometry x="17.08333333333333" y="216.64031620553362" width="375.83333333333326" height="21.343873517786562" as="geometry"/>
                </mxCell>
                <mxCell id="262" value="Transform" style="rounded=0;whiteSpace=wrap;html=1;" parent="280" vertex="1">
                    <mxGeometry x="153.75" y="109.92094861660078" width="102.49999999999997" height="32.015810276679844" as="geometry"/>
                </mxCell>
                <mxCell id="263" value="Load &lt;br&gt;Postgres DB (Buffers)" style="rounded=0;whiteSpace=wrap;html=1;" parent="280" vertex="1">
                    <mxGeometry x="290.42" y="109.92" width="102.5" height="40.08" as="geometry"/>
                </mxCell>
                <mxCell id="265" value="Dagster Connection Orquestrator" style="shape=parallelogram;perimeter=parallelogramPerimeter;whiteSpace=wrap;html=1;fixedSize=1;dashed=1;strokeColor=#6666FF;" parent="280" vertex="1">
                    <mxGeometry x="145.20833333333331" y="45.889328063241116" width="136.66666666666663" height="42.687747035573125" as="geometry"/>
                </mxCell>
                <mxCell id="268" value="" style="edgeStyle=elbowEdgeStyle;elbow=horizontal;endArrow=classic;html=1;curved=0;rounded=0;endSize=8;startSize=8;exitX=0.5;exitY=1;exitDx=0;exitDy=0;" parent="280" source="258" target="259" edge="1">
                    <mxGeometry width="50" height="50" relative="1" as="geometry">
                        <mxPoint x="145.20833333333331" y="131.26482213438737" as="sourcePoint"/>
                        <mxPoint x="187.91666666666663" y="77.90513833992094" as="targetPoint"/>
                        <Array as="points"/>
                    </mxGeometry>
                </mxCell>
                <mxCell id="269" style="edgeStyle=none;html=1;exitX=0.5;exitY=1;exitDx=0;exitDy=0;entryX=0.135;entryY=0.041;entryDx=0;entryDy=0;entryPerimeter=0;" parent="280" edge="1">
                    <mxGeometry relative="1" as="geometry">
                        <mxPoint x="60.04791666666666" y="141.93675889328063" as="sourcePoint"/>
                        <mxPoint x="59.535416666666634" y="217.51541501976277" as="targetPoint"/>
                    </mxGeometry>
                </mxCell>
                <mxCell id="271" value="Topic:&amp;nbsp;&lt;div&gt;[opcua/data]&lt;/div&gt;" style="edgeLabel;html=1;align=center;verticalAlign=middle;resizable=0;points=[];" parent="269" vertex="1" connectable="0">
                    <mxGeometry x="0.0372" y="3" relative="1" as="geometry">
                        <mxPoint as="offset"/>
                    </mxGeometry>
                </mxCell>
                <mxCell id="275" style="edgeStyle=none;html=1;exitX=0.5;exitY=0;exitDx=0;exitDy=0;entryX=0.5;entryY=1;entryDx=0;entryDy=0;" parent="280" target="263" edge="1">
                    <mxGeometry relative="1" as="geometry">
                        <mxPoint x="341.23958333333326" y="216.64031620553337" as="sourcePoint"/>
                        <mxPoint x="341.23958333333326" y="152.6086956521739" as="targetPoint"/>
                    </mxGeometry>
                </mxCell>
                <mxCell id="276" value="Client" style="edgeLabel;html=1;align=center;verticalAlign=middle;resizable=0;points=[];" parent="275" vertex="1" connectable="0">
                    <mxGeometry x="0.1448" relative="1" as="geometry">
                        <mxPoint as="offset"/>
                    </mxGeometry>
                </mxCell>
                <mxCell id="285" value="SSD3 - ETL" style="text;strokeColor=none;fillColor=none;html=1;verticalAlign=middle;align=center;fontColor=#B3B3B3;fontSize=15;" parent="280" vertex="1">
                    <mxGeometry x="108.74999999999993" y="6" width="192.5" height="30" as="geometry"/>
                </mxCell>
                <mxCell id="286" value="" style="edgeStyle=elbowEdgeStyle;elbow=horizontal;endArrow=classic;html=1;curved=0;rounded=0;endSize=8;startSize=8;exitX=0.75;exitY=1;exitDx=0;exitDy=0;entryX=0;entryY=0.5;entryDx=0;entryDy=0;" parent="1" source="10" target="140" edge="1">
                    <mxGeometry width="50" height="50" relative="1" as="geometry">
                        <mxPoint x="871" y="670" as="sourcePoint"/>
                        <mxPoint x="921" y="620" as="targetPoint"/>
                        <Array as="points">
                            <mxPoint x="571" y="650"/>
                        </Array>
                    </mxGeometry>
                </mxCell>
                <mxCell id="288" value="" style="edgeStyle=elbowEdgeStyle;elbow=horizontal;endArrow=classic;html=1;curved=0;rounded=0;endSize=8;startSize=8;exitX=1;exitY=0.5;exitDx=0;exitDy=0;entryX=0;entryY=0.5;entryDx=0;entryDy=0;" parent="1" source="140" target="74" edge="1">
                    <mxGeometry width="50" height="50" relative="1" as="geometry">
                        <mxPoint x="871" y="770" as="sourcePoint"/>
                        <mxPoint x="921" y="720" as="targetPoint"/>
                        <Array as="points">
                            <mxPoint x="771" y="730"/>
                        </Array>
                    </mxGeometry>
                </mxCell>
                <mxCell id="289" value="" style="edgeStyle=elbowEdgeStyle;elbow=vertical;endArrow=classic;html=1;curved=0;rounded=0;endSize=8;startSize=8;exitX=1;exitY=0.5;exitDx=0;exitDy=0;entryX=0.345;entryY=0.009;entryDx=0;entryDy=0;entryPerimeter=0;" parent="1" source="158" target="137" edge="1">
                    <mxGeometry width="50" height="50" relative="1" as="geometry">
                        <mxPoint x="911" y="350" as="sourcePoint"/>
                        <mxPoint x="961" y="300" as="targetPoint"/>
                        <Array as="points">
                            <mxPoint x="871" y="210"/>
                        </Array>
                    </mxGeometry>
                </mxCell>
                <mxCell id="32" value="Pivoted 1S" style="shape=table;childLayout=tableLayout;startSize=20;collapsible=0;recursiveResize=0;expand=0;fontSize=16;" parent="1" vertex="1">
                    <mxGeometry x="871" y="431.5" width="160" height="60" as="geometry"/>
                </mxCell>
                <mxCell id="33" value="" style="shape=tableRow;horizontal=0;swimlaneHead=0;swimlaneBody=0;top=0;left=0;strokeColor=inherit;bottom=0;right=0;dropTarget=0;fontStyle=0;fillColor=none;points=[[0,0.5],[1,0.5]];portConstraint=eastwest;startSize=40;collapsible=0;recursiveResize=0;expand=0;fontSize=16;" parent="32" vertex="1">
                    <mxGeometry y="20" width="160" height="15" as="geometry"/>
                </mxCell>
                <mxCell id="34" value="" style="swimlane;swimlaneHead=0;swimlaneBody=0;fontStyle=0;strokeColor=inherit;connectable=0;fillColor=none;startSize=40;collapsible=0;recursiveResize=0;expand=0;fontSize=16;" parent="33" vertex="1">
                    <mxGeometry x="40" width="40" height="15" as="geometry">
                        <mxRectangle width="40" height="15" as="alternateBounds"/>
                    </mxGeometry>
                </mxCell>
                <mxCell id="35" value="" style="swimlane;swimlaneHead=0;swimlaneBody=0;fontStyle=0;strokeColor=inherit;connectable=0;fillColor=none;startSize=40;collapsible=0;recursiveResize=0;expand=0;fontSize=16;" parent="33" vertex="1">
                    <mxGeometry x="80" width="40" height="15" as="geometry">
                        <mxRectangle width="40" height="15" as="alternateBounds"/>
                    </mxGeometry>
                </mxCell>
                <mxCell id="36" value="" style="swimlane;swimlaneHead=0;swimlaneBody=0;fontStyle=0;strokeColor=inherit;connectable=0;fillColor=none;startSize=40;collapsible=0;recursiveResize=0;expand=0;fontSize=16;" parent="33" vertex="1">
                    <mxGeometry x="120" width="40" height="15" as="geometry">
                        <mxRectangle width="40" height="15" as="alternateBounds"/>
                    </mxGeometry>
                </mxCell>
                <mxCell id="37" value="" style="shape=tableRow;horizontal=0;swimlaneHead=0;swimlaneBody=0;top=0;left=0;strokeColor=inherit;bottom=0;right=0;dropTarget=0;fontStyle=0;fillColor=none;points=[[0,0.5],[1,0.5]];portConstraint=eastwest;startSize=40;collapsible=0;recursiveResize=0;expand=0;fontSize=16;" parent="32" vertex="1">
                    <mxGeometry y="35" width="160" height="12" as="geometry"/>
                </mxCell>
                <mxCell id="38" value="" style="swimlane;swimlaneHead=0;swimlaneBody=0;fontStyle=0;connectable=0;strokeColor=inherit;fillColor=none;startSize=0;collapsible=0;recursiveResize=0;expand=0;fontSize=16;" parent="37" vertex="1">
                    <mxGeometry x="40" width="40" height="12" as="geometry">
                        <mxRectangle width="40" height="12" as="alternateBounds"/>
                    </mxGeometry>
                </mxCell>
                <mxCell id="39" value="" style="swimlane;swimlaneHead=0;swimlaneBody=0;fontStyle=0;connectable=0;strokeColor=inherit;fillColor=none;startSize=0;collapsible=0;recursiveResize=0;expand=0;fontSize=16;" parent="37" vertex="1">
                    <mxGeometry x="80" width="40" height="12" as="geometry">
                        <mxRectangle width="40" height="12" as="alternateBounds"/>
                    </mxGeometry>
                </mxCell>
                <mxCell id="40" value="" style="swimlane;swimlaneHead=0;swimlaneBody=0;fontStyle=0;connectable=0;strokeColor=inherit;fillColor=none;startSize=0;collapsible=0;recursiveResize=0;expand=0;fontSize=16;" parent="37" vertex="1">
                    <mxGeometry x="120" width="40" height="12" as="geometry">
                        <mxRectangle width="40" height="12" as="alternateBounds"/>
                    </mxGeometry>
                </mxCell>
                <mxCell id="41" value="" style="shape=tableRow;horizontal=0;swimlaneHead=0;swimlaneBody=0;top=0;left=0;strokeColor=inherit;bottom=0;right=0;dropTarget=0;fontStyle=0;fillColor=none;points=[[0,0.5],[1,0.5]];portConstraint=eastwest;startSize=40;collapsible=0;recursiveResize=0;expand=0;fontSize=16;" parent="32" vertex="1">
                    <mxGeometry y="47" width="160" height="13" as="geometry"/>
                </mxCell>
                <mxCell id="42" value="" style="swimlane;swimlaneHead=0;swimlaneBody=0;fontStyle=0;connectable=0;strokeColor=inherit;fillColor=none;startSize=0;collapsible=0;recursiveResize=0;expand=0;fontSize=16;" parent="41" vertex="1">
                    <mxGeometry x="40" width="40" height="13" as="geometry">
                        <mxRectangle width="40" height="13" as="alternateBounds"/>
                    </mxGeometry>
                </mxCell>
                <mxCell id="43" value="" style="swimlane;swimlaneHead=0;swimlaneBody=0;fontStyle=0;connectable=0;strokeColor=inherit;fillColor=none;startSize=0;collapsible=0;recursiveResize=0;expand=0;fontSize=16;" parent="41" vertex="1">
                    <mxGeometry x="80" width="40" height="13" as="geometry">
                        <mxRectangle width="40" height="13" as="alternateBounds"/>
                    </mxGeometry>
                </mxCell>
                <mxCell id="44" value="" style="swimlane;swimlaneHead=0;swimlaneBody=0;fontStyle=0;connectable=0;strokeColor=inherit;fillColor=none;startSize=0;collapsible=0;recursiveResize=0;expand=0;fontSize=16;" parent="41" vertex="1">
                    <mxGeometry x="120" width="40" height="13" as="geometry">
                        <mxRectangle width="40" height="13" as="alternateBounds"/>
                    </mxGeometry>
                </mxCell>
                <mxCell id="292" value="" style="edgeStyle=elbowEdgeStyle;elbow=horizontal;endArrow=classic;html=1;curved=0;rounded=0;endSize=8;startSize=8;exitX=1;exitY=0.5;exitDx=0;exitDy=0;entryX=0;entryY=0.5;entryDx=0;entryDy=0;" parent="1" source="150" target="37" edge="1">
                    <mxGeometry width="50" height="50" relative="1" as="geometry">
                        <mxPoint x="791" y="330" as="sourcePoint"/>
                        <mxPoint x="841" y="280" as="targetPoint"/>
                        <Array as="points">
                            <mxPoint x="831" y="310"/>
                        </Array>
                    </mxGeometry>
                </mxCell>
                <mxCell id="293" value="" style="edgeStyle=elbowEdgeStyle;elbow=horizontal;endArrow=classic;html=1;curved=0;rounded=0;endSize=8;startSize=8;exitX=1;exitY=0.5;exitDx=0;exitDy=0;entryX=0;entryY=0.5;entryDx=0;entryDy=0;" parent="1" source="150" target="46" edge="1">
                    <mxGeometry width="50" height="50" relative="1" as="geometry">
                        <mxPoint x="811" y="460" as="sourcePoint"/>
                        <mxPoint x="861" y="410" as="targetPoint"/>
                        <Array as="points">
                            <mxPoint x="831" y="380"/>
                        </Array>
                    </mxGeometry>
                </mxCell>
                <mxCell id="294" value="" style="edgeStyle=elbowEdgeStyle;elbow=horizontal;endArrow=classic;html=1;curved=0;rounded=0;endSize=8;startSize=8;exitX=1;exitY=0.5;exitDx=0;exitDy=0;entryX=0;entryY=0.5;entryDx=0;entryDy=0;" parent="1" source="153" target="102" edge="1">
                    <mxGeometry width="50" height="50" relative="1" as="geometry">
                        <mxPoint x="1081" y="350" as="sourcePoint"/>
                        <mxPoint x="1131" y="300" as="targetPoint"/>
                        <Array as="points">
                            <mxPoint x="1111" y="290"/>
                        </Array>
                    </mxGeometry>
                </mxCell>
                <mxCell id="296" value="" style="edgeStyle=elbowEdgeStyle;elbow=horizontal;endArrow=classic;html=1;curved=0;rounded=0;endSize=8;startSize=8;exitX=1;exitY=0.5;exitDx=0;exitDy=0;entryX=0;entryY=0.5;entryDx=0;entryDy=0;" parent="1" source="153" edge="1">
                    <mxGeometry width="50" height="50" relative="1" as="geometry">
                        <mxPoint x="1041" y="135" as="sourcePoint"/>
                        <mxPoint x="1131" y="592" as="targetPoint"/>
                        <Array as="points">
                            <mxPoint x="1111" y="360"/>
                        </Array>
                    </mxGeometry>
                </mxCell>
                <mxCell id="298" value="" style="edgeStyle=elbowEdgeStyle;elbow=horizontal;endArrow=classic;html=1;curved=0;rounded=0;endSize=8;startSize=8;exitX=0.5;exitY=0;exitDx=0;exitDy=0;entryX=0;entryY=0.5;entryDx=0;entryDy=0;" parent="1" source="137" target="165" edge="1">
                    <mxGeometry width="50" height="50" relative="1" as="geometry">
                        <mxPoint x="971" y="320" as="sourcePoint"/>
                        <mxPoint x="1021" y="270" as="targetPoint"/>
                        <Array as="points">
                            <mxPoint x="846" y="230"/>
                        </Array>
                    </mxGeometry>
                </mxCell>
                <mxCell id="302" value="" style="edgeStyle=elbowEdgeStyle;elbow=vertical;endArrow=classic;html=1;curved=0;rounded=0;endSize=8;startSize=8;exitX=1;exitY=0.5;exitDx=0;exitDy=0;entryX=0.25;entryY=0;entryDx=0;entryDy=0;" parent="1" source="165" target="166" edge="1">
                    <mxGeometry width="50" height="50" relative="1" as="geometry">
                        <mxPoint x="981" y="340" as="sourcePoint"/>
                        <mxPoint x="1031" y="290" as="targetPoint"/>
                        <Array as="points">
                            <mxPoint x="1081" y="205"/>
                        </Array>
                    </mxGeometry>
                </mxCell>
                <mxCell id="303" value="" style="edgeStyle=elbowEdgeStyle;elbow=vertical;endArrow=classic;html=1;curved=0;rounded=0;endSize=8;startSize=8;exitX=0.5;exitY=1;exitDx=0;exitDy=0;entryX=0.5;entryY=0;entryDx=0;entryDy=0;" parent="1" source="253" target="304" edge="1">
                    <mxGeometry width="50" height="50" relative="1" as="geometry">
                        <mxPoint x="1048.5" y="890" as="sourcePoint"/>
                        <mxPoint x="1496" y="890" as="targetPoint"/>
                    </mxGeometry>
                </mxCell>
                <mxCell id="304" value="&lt;font style=&quot;font-size: 16px;&quot;&gt;Visualization&lt;/font&gt;" style="shape=ext;double=1;rounded=0;whiteSpace=wrap;html=1;fontSize=1;" parent="1" vertex="1">
                    <mxGeometry x="1436.25" y="850" width="120" height="40" as="geometry"/>
                </mxCell>
                <mxCell id="306" value="Wide Table 1M" style="shape=table;childLayout=tableLayout;startSize=20;collapsible=0;recursiveResize=0;expand=0;fontSize=16;strokeColor=#00994D;fontColor=#00994D;" parent="1" vertex="1">
                    <mxGeometry x="1131" y="560" width="160" height="60" as="geometry"/>
                </mxCell>
                <mxCell id="307" value="" style="shape=tableRow;horizontal=0;swimlaneHead=0;swimlaneBody=0;top=0;left=0;strokeColor=inherit;bottom=0;right=0;dropTarget=0;fontStyle=0;fillColor=none;points=[[0,0.5],[1,0.5]];portConstraint=eastwest;startSize=40;collapsible=0;recursiveResize=0;expand=0;fontSize=16;" parent="306" vertex="1">
                    <mxGeometry y="20" width="160" height="15" as="geometry"/>
                </mxCell>
                <mxCell id="308" value="" style="swimlane;swimlaneHead=0;swimlaneBody=0;fontStyle=0;strokeColor=inherit;connectable=0;fillColor=none;startSize=40;collapsible=0;recursiveResize=0;expand=0;fontSize=16;" parent="307" vertex="1">
                    <mxGeometry x="40" width="40" height="15" as="geometry">
                        <mxRectangle width="40" height="15" as="alternateBounds"/>
                    </mxGeometry>
                </mxCell>
                <mxCell id="309" value="" style="swimlane;swimlaneHead=0;swimlaneBody=0;fontStyle=0;strokeColor=inherit;connectable=0;fillColor=none;startSize=40;collapsible=0;recursiveResize=0;expand=0;fontSize=16;" parent="307" vertex="1">
                    <mxGeometry x="80" width="40" height="15" as="geometry">
                        <mxRectangle width="40" height="15" as="alternateBounds"/>
                    </mxGeometry>
                </mxCell>
                <mxCell id="310" value="" style="swimlane;swimlaneHead=0;swimlaneBody=0;fontStyle=0;strokeColor=inherit;connectable=0;fillColor=none;startSize=40;collapsible=0;recursiveResize=0;expand=0;fontSize=16;" parent="307" vertex="1">
                    <mxGeometry x="120" width="40" height="15" as="geometry">
                        <mxRectangle width="40" height="15" as="alternateBounds"/>
                    </mxGeometry>
                </mxCell>
                <mxCell id="311" value="" style="shape=tableRow;horizontal=0;swimlaneHead=0;swimlaneBody=0;top=0;left=0;strokeColor=inherit;bottom=0;right=0;dropTarget=0;fontStyle=0;fillColor=none;points=[[0,0.5],[1,0.5]];portConstraint=eastwest;startSize=40;collapsible=0;recursiveResize=0;expand=0;fontSize=16;" parent="306" vertex="1">
                    <mxGeometry y="35" width="160" height="12" as="geometry"/>
                </mxCell>
                <mxCell id="312" value="" style="swimlane;swimlaneHead=0;swimlaneBody=0;fontStyle=0;connectable=0;strokeColor=inherit;fillColor=none;startSize=0;collapsible=0;recursiveResize=0;expand=0;fontSize=16;" parent="311" vertex="1">
                    <mxGeometry x="40" width="40" height="12" as="geometry">
                        <mxRectangle width="40" height="12" as="alternateBounds"/>
                    </mxGeometry>
                </mxCell>
                <mxCell id="313" value="" style="swimlane;swimlaneHead=0;swimlaneBody=0;fontStyle=0;connectable=0;strokeColor=inherit;fillColor=none;startSize=0;collapsible=0;recursiveResize=0;expand=0;fontSize=16;" parent="311" vertex="1">
                    <mxGeometry x="80" width="40" height="12" as="geometry">
                        <mxRectangle width="40" height="12" as="alternateBounds"/>
                    </mxGeometry>
                </mxCell>
                <mxCell id="314" value="" style="swimlane;swimlaneHead=0;swimlaneBody=0;fontStyle=0;connectable=0;strokeColor=inherit;fillColor=none;startSize=0;collapsible=0;recursiveResize=0;expand=0;fontSize=16;" parent="311" vertex="1">
                    <mxGeometry x="120" width="40" height="12" as="geometry">
                        <mxRectangle width="40" height="12" as="alternateBounds"/>
                    </mxGeometry>
                </mxCell>
                <mxCell id="315" value="" style="shape=tableRow;horizontal=0;swimlaneHead=0;swimlaneBody=0;top=0;left=0;strokeColor=inherit;bottom=0;right=0;dropTarget=0;fontStyle=0;fillColor=none;points=[[0,0.5],[1,0.5]];portConstraint=eastwest;startSize=40;collapsible=0;recursiveResize=0;expand=0;fontSize=16;" parent="306" vertex="1">
                    <mxGeometry y="47" width="160" height="13" as="geometry"/>
                </mxCell>
                <mxCell id="316" value="" style="swimlane;swimlaneHead=0;swimlaneBody=0;fontStyle=0;connectable=0;strokeColor=inherit;fillColor=none;startSize=0;collapsible=0;recursiveResize=0;expand=0;fontSize=16;" parent="315" vertex="1">
                    <mxGeometry x="40" width="40" height="13" as="geometry">
                        <mxRectangle width="40" height="13" as="alternateBounds"/>
                    </mxGeometry>
                </mxCell>
                <mxCell id="317" value="" style="swimlane;swimlaneHead=0;swimlaneBody=0;fontStyle=0;connectable=0;strokeColor=inherit;fillColor=none;startSize=0;collapsible=0;recursiveResize=0;expand=0;fontSize=16;" parent="315" vertex="1">
                    <mxGeometry x="80" width="40" height="13" as="geometry">
                        <mxRectangle width="40" height="13" as="alternateBounds"/>
                    </mxGeometry>
                </mxCell>
                <mxCell id="318" value="" style="swimlane;swimlaneHead=0;swimlaneBody=0;fontStyle=0;connectable=0;strokeColor=inherit;fillColor=none;startSize=0;collapsible=0;recursiveResize=0;expand=0;fontSize=16;" parent="315" vertex="1">
                    <mxGeometry x="120" width="40" height="13" as="geometry">
                        <mxRectangle width="40" height="13" as="alternateBounds"/>
                    </mxGeometry>
                </mxCell>
            </root>
        </mxGraphModel>
    </diagram>
</mxfile>